<?xml version="1.0" encoding="utf-8"?>
<!-- Generator: Adobe Illustrator 17.0.0, SVG Export Plug-In . SVG Version: 6.00 Build 0)  -->
<!DOCTYPE svg PUBLIC "-//W3C//DTD SVG 1.1//EN" "http://www.w3.org/Graphics/SVG/1.1/DTD/svg11.dtd">
<svg version="1.1" id="Layer_1" xmlns="http://www.w3.org/2000/svg" xmlns:xlink="http://www.w3.org/1999/xlink" x="0px" y="0px"
	 width="26.167px" height="680.499px" viewBox="0 0 26.167 680.499" enable-background="new 0 0 26.167 680.499"
	 xml:space="preserve">
<g enable-background="new    ">
	<path fill="#5D5D5D" d="M15.487,10.3c-0.341-0.253-0.837-0.374-1.441-0.374c-0.957,0-1.683,0.572-2.002,1.761h3.037l-0.188,0.737
		h-2.981c-0.033,0.253-0.044,0.506-0.044,0.803v0.275c0,0.088,0,0.176,0.011,0.253h2.662l-0.188,0.715h-2.409
		c0.187,1.232,0.737,1.849,1.836,1.849c0.617,0,1.057-0.265,1.376-0.649l0.539,0.539c-0.386,0.517-1.111,0.924-1.958,0.924
		c-1.574,0-2.476-0.913-2.751-2.662h-0.792l0.209-0.715h0.506c-0.011-0.088-0.011-0.177-0.011-0.265v-0.297
		c0-0.275,0.011-0.528,0.033-0.77h-0.726l0.231-0.737h0.627c0.407-1.761,1.573-2.607,3.025-2.607c0.616,0,1.243,0.165,1.629,0.396
		L15.487,10.3z"/>
</g>
<g>
	<path fill="#979797" d="M13,21.5c-4.687,0-8.5-3.813-8.5-8.5S8.313,4.5,13,4.5s8.5,3.813,8.5,8.5S17.687,21.5,13,21.5z M13,5.5
		c-4.136,0-7.5,3.364-7.5,7.5s3.364,7.5,7.5,7.5c4.135,0,7.5-3.364,7.5-7.5S17.135,5.5,13,5.5z"/>
</g>
<g>
	<g enable-background="new    ">
		<path fill="#5D5D5D" d="M9.737,36.229h0.81v4.393l1.836-1.845h1.125l-1.99,1.936l2.16,2.322h-1.152l-1.98-2.215v2.215h-0.81
			L9.737,36.229L9.737,36.229z"/>
	</g>
	<g enable-background="new    ">
		<path fill="#5D5D5D" d="M14.777,38.767h0.81v0.657h0.019c0.207-0.45,0.747-0.765,1.278-0.765c0.126,0,0.252,0.018,0.36,0.054
			l-0.036,0.873c-0.136-0.036-0.271-0.063-0.396-0.063c-0.792,0-1.225,0.432-1.225,1.368v2.143h-0.81
			C14.777,43.034,14.777,38.767,14.777,38.767z"/>
	</g>
	<g>
		<path fill="#979797" d="M13,48.535c-4.687,0-8.5-3.813-8.5-8.5s3.813-8.5,8.5-8.5s8.5,3.813,8.5,8.5S17.687,48.535,13,48.535z
			 M13,32.535c-4.136,0-7.5,3.364-7.5,7.5s3.364,7.5,7.5,7.5c4.135,0,7.5-3.364,7.5-7.5S17.135,32.535,13,32.535z"/>
	</g>
</g>
<g>
	<g enable-background="new    ">
		<path fill="#5D5D5D" d="M14.734,67.496h-1.783v2.685h2.707v0.924h-4.885V70.18h1.122v-2.685h-1.057v-0.792h1.057v-1.101
			c0-1.276,0.814-2.42,2.42-2.42c0.693,0,1.354,0.198,1.859,0.682l-0.671,0.771c-0.33-0.319-0.715-0.528-1.078-0.528
			c-0.771,0-1.475,0.473-1.475,1.761v0.836h1.783v0.792H14.734z"/>
	</g>
	<g>
		<path fill="#979797" d="M13.077,75.604c-4.687,0-8.5-3.813-8.5-8.5s3.813-8.5,8.5-8.5s8.5,3.813,8.5,8.5
			S17.764,75.604,13.077,75.604z M13.077,59.604c-4.136,0-7.5,3.364-7.5,7.5s3.364,7.5,7.5,7.5c4.135,0,7.5-3.364,7.5-7.5
			S17.212,59.604,13.077,59.604z"/>
	</g>
</g>
<g enable-background="new    ">
	<path fill="#5D5D5D" d="M13.513,90.145c0.803,0,1.617,0.264,2.179,0.847l-0.792,0.77c-0.33-0.43-0.836-0.683-1.387-0.693v2.597
		l-0.022,0.011c1.276,0.353,2.399,0.759,2.399,2.255c0,1.343-1.101,2.189-2.377,2.267v0.792h-0.594v-0.792
		c-0.958,0-1.827-0.286-2.42-1.056l0.847-0.76c0.33,0.551,0.957,0.869,1.573,0.892v-2.706c-1.188-0.309-2.245-0.858-2.245-2.256
		c0-1.254,1.067-2.068,2.245-2.167v-0.792h0.594V90.145z M12.919,91.069c-0.693,0.11-1.188,0.55-1.188,1.243
		s0.572,1.023,1.188,1.199V91.069z M13.513,97.274c0.727-0.088,1.32-0.55,1.32-1.298c0-0.76-0.66-1.046-1.32-1.255V97.274z"/>
</g>
<g>
	<path fill="#979797" d="M13,102.566c-4.687,0-8.5-3.813-8.5-8.5s3.813-8.5,8.5-8.5s8.5,3.813,8.5,8.5S17.687,102.566,13,102.566z
		 M13,86.566c-4.136,0-7.5,3.364-7.5,7.5s3.364,7.5,7.5,7.5c4.135,0,7.5-3.364,7.5-7.5S17.135,86.566,13,86.566z"/>
</g>
<polyline fill="#231F20" points="7.533,118.364 13.299,124.001 19.065,118.364 17.826,117.168 13.299,121.652 8.729,117.168 
	7.533,118.364 "/>
<rect x="4.448" y="148.097" fill="#231F20" width="17.042" height="1.949"/>
<polygon fill="#231F20" points="11.987,177.648 4.635,177.648 4.635,179.486 11.987,179.486 11.987,186.838 13.825,186.838 
	13.825,179.486 21.177,179.486 21.177,177.648 13.825,177.648 13.825,170.296 11.987,170.296 "/>
<polygon fill="#231F20" points="10.843,212.001 18.873,203.972 19.784,204.883 10.975,213.692 10.843,213.559 10.711,213.692 
	6.198,209.179 7.109,208.267 "/>
<polygon fill="#FFFFFF" points="10.843,533.492 18.873,525.463 19.784,526.374 10.975,535.182 10.843,535.05 10.711,535.182 
	6.198,530.669 7.109,529.758 "/>
<polygon fill="#231F20" points="17.606,243.642 12.889,239.216 8.33,243.642 7.295,242.622 11.985,238.068 7.295,233.515 
	8.33,232.495 12.889,236.921 17.606,232.495 18.678,233.515 13.825,238.069 18.678,242.622 "/>
<g>
	<path fill="#231F20" d="M13.11,257.737c-6.064,0-10.999,4.935-10.999,10.999c0,6.066,4.935,11.001,10.999,11.001
		c6.066,0,11.001-4.935,11.001-11.001C24.111,262.672,19.176,257.737,13.11,257.737L13.11,257.737z M15.847,269.123h-1.789v6.38
		h-2.652v-6.38h-1.261v-2.254h1.261v-1.458c0-1.043,0.496-2.676,2.676-2.676l1.964,0.008v2.188H14.62
		c-0.234,0-0.563,0.117-0.563,0.614v1.326h2.021L15.847,269.123z"/>
</g>
<g>
	<path fill="#231F20" d="M13.183,283.731c-6.064,0-10.999,4.935-10.999,10.999c0,6.066,4.935,11.001,10.999,11.001
		c6.066,0,11.001-4.935,11.001-11.001C24.184,288.667,19.249,283.731,13.183,283.731L13.183,283.731z M18.092,292.214
		c0.004,0.108,0.006,0.218,0.006,0.329c0,3.345-2.546,7.202-7.204,7.202c-1.43,0-2.761-0.417-3.881-1.138
		c0.199,0.024,0.4,0.037,0.604,0.037c1.187,0,2.278-0.404,3.145-1.084c-1.108-0.022-2.042-0.753-2.364-1.759
		c0.153,0.03,0.311,0.045,0.476,0.045c0.229,0,0.454-0.03,0.666-0.089c-1.158-0.232-2.031-1.254-2.031-2.481
		c0-0.011,0-0.022,0.002-0.033c0.34,0.191,0.732,0.303,1.147,0.316c-0.68-0.452-1.128-1.228-1.128-2.107
		c0-0.463,0.126-0.898,0.342-1.272c1.248,1.532,3.115,2.54,5.218,2.646c-0.043-0.186-0.065-0.378-0.065-0.578
		c0-1.397,1.134-2.531,2.532-2.531c0.729,0,1.386,0.307,1.847,0.798c0.578-0.112,1.121-0.322,1.61-0.614
		c-0.191,0.593-0.591,1.088-1.114,1.402c0.513-0.06,1.002-0.197,1.454-0.398C19.016,291.412,18.585,291.857,18.092,292.214
		L18.092,292.214z"/>
</g>
<g>
	<path fill="#231F20" d="M7.882,321.244h0.873v4.721H9.58v-4.721h0.888v-0.773H7.882V321.244z"/>
	<path fill="#231F20" d="M14.86,321.821c-0.273,0-0.528,0.149-0.767,0.444v-1.793h-0.742v5.494h0.742v-0.397
		c0.248,0.306,0.503,0.453,0.767,0.453c0.295,0,0.493-0.156,0.592-0.461c0.05-0.174,0.075-0.446,0.075-0.824v-1.63
		c0-0.388-0.025-0.658-0.075-0.823C15.353,321.978,15.154,321.821,14.86,321.821L14.86,321.821z M14.785,324.795
		c0,0.369-0.108,0.552-0.322,0.552c-0.122,0-0.246-0.058-0.371-0.182v-2.495c0.124-0.122,0.248-0.18,0.371-0.18
		c0.213,0,0.322,0.189,0.322,0.558V324.795z"/>
	<path fill="#231F20" d="M11.967,325c-0.165,0.233-0.32,0.347-0.469,0.347c-0.099,0-0.155-0.058-0.174-0.174
		c-0.006-0.024-0.006-0.114-0.006-0.288v-3.013h-0.742v3.236c0,0.289,0.025,0.484,0.066,0.609c0.075,0.207,0.239,0.304,0.478,0.304
		c0.273,0,0.553-0.165,0.847-0.503v0.447h0.743v-4.094h-0.743C11.967,321.871,11.967,325,11.967,325z"/>
	<path fill="#231F20" d="M12.605,318.09c0.241,0,0.357-0.191,0.357-0.575v-1.739c0-0.382-0.116-0.574-0.357-0.574
		c-0.242,0-0.358,0.191-0.358,0.574v1.739C12.247,317.899,12.363,318.09,12.605,318.09L12.605,318.09z"/>
	<path fill="#231F20" d="M13.105,309.433c-6.076,0-11.001,4.924-11.001,11.001c0,6.075,4.924,10.999,11.001,10.999
		c6.075,0,10.999-4.924,10.999-10.999C24.104,314.357,19.18,309.433,13.105,309.433L13.105,309.433z M14.328,314.578h0.747v3.045
		c0,0.176,0,0.267,0.009,0.291c0.016,0.117,0.076,0.176,0.176,0.176c0.151,0,0.308-0.116,0.473-0.351v-3.162h0.749v4.136h-0.749
		v-0.452c-0.299,0.343-0.582,0.509-0.856,0.509c-0.242,0-0.408-0.099-0.483-0.307c-0.041-0.125-0.066-0.323-0.066-0.616
		C14.328,317.847,14.328,314.578,14.328,314.578z M11.497,315.927c0-0.442,0.075-0.765,0.234-0.975
		c0.208-0.282,0.5-0.424,0.874-0.424c0.375,0,0.667,0.142,0.874,0.424c0.157,0.209,0.233,0.533,0.233,0.975v1.448
		c0,0.44-0.076,0.766-0.233,0.973c-0.207,0.282-0.499,0.424-0.874,0.424c-0.374,0-0.666-0.142-0.874-0.424
		c-0.16-0.207-0.234-0.533-0.234-0.973V315.927z M9.493,313.164l0.59,2.179l0.567-2.179h0.841l-1,3.302v2.248H9.659v-2.248
		c-0.076-0.398-0.242-0.981-0.509-1.756c-0.175-0.515-0.357-1.032-0.533-1.546H9.493z M19.026,326.326
		c-0.151,0.653-0.683,1.134-1.326,1.207c-1.522,0.169-3.062,0.17-4.596,0.169c-1.533,0.001-3.074,0-4.596-0.169
		c-0.643-0.073-1.176-0.554-1.326-1.207c-0.213-0.929-0.213-1.944-0.213-2.9c0-0.957,0.002-1.972,0.217-2.901
		c0.149-0.653,0.683-1.134,1.325-1.207c1.522-0.169,3.063-0.171,4.596-0.169c1.534-0.001,3.074,0,4.596,0.169
		c0.643,0.073,1.177,0.554,1.328,1.207c0.213,0.93,0.211,1.944,0.211,2.901C19.24,324.382,19.24,325.397,19.026,326.326
		L19.026,326.326z"/>
	<path fill="#231F20" d="M17.221,321.821c-0.379,0-0.674,0.14-0.888,0.42c-0.157,0.208-0.228,0.527-0.228,0.965v1.434
		c0,0.434,0.08,0.757,0.237,0.962c0.214,0.28,0.51,0.42,0.898,0.42s0.691-0.146,0.897-0.444c0.09-0.131,0.149-0.28,0.174-0.444
		c0.007-0.075,0.015-0.239,0.015-0.478v-0.107H17.57c0,0.297-0.01,0.461-0.017,0.502c-0.043,0.198-0.148,0.297-0.332,0.297
		c-0.254,0-0.379-0.189-0.379-0.567v-0.726h1.483v-0.847c0-0.437-0.074-0.757-0.23-0.965
		C17.89,321.961,17.594,321.821,17.221,321.821L17.221,321.821z M17.585,323.436h-0.742v-0.378c0-0.379,0.124-0.568,0.371-0.568
		c0.246,0,0.37,0.189,0.37,0.568L17.585,323.436L17.585,323.436z"/>
</g>
<g>
	<path fill="#231F20" d="M13.11,348.271c1.214,0,2.203-0.986,2.203-2.202c0-0.479-0.156-0.922-0.415-1.283
		c-0.4-0.554-1.051-0.917-1.787-0.917c-0.733,0-1.385,0.361-1.784,0.917c-0.262,0.362-0.415,0.805-0.418,1.283
		C10.908,347.285,11.897,348.271,13.11,348.271L13.11,348.271z"/>
	<path fill="#231F20" d="M17.92,343.375v-2.12h-0.277l-1.845,0.007l0.009,2.12L17.92,343.375z"/>
	<path fill="#231F20" d="M13.11,335.07c-6.064,0-10.999,4.935-10.999,10.999c0,6.066,4.935,11.001,10.999,11.001
		c6.066,0,11.001-4.935,11.001-11.001C24.111,340.005,19.176,335.07,13.11,335.07L13.11,335.07z M19.367,344.786v5.123
		c0,1.333-1.084,2.417-2.419,2.417H9.273c-1.333,0-2.417-1.084-2.417-2.417v-7.676c0-1.335,1.084-2.419,2.417-2.419h7.676
		c1.335,0,2.419,1.084,2.419,2.419L19.367,344.786L19.367,344.786z"/>
	<path fill="#231F20" d="M16.533,346.069c0,1.886-1.534,3.422-3.423,3.422c-1.886,0-3.42-1.536-3.42-3.422
		c0-0.452,0.091-0.887,0.251-1.283H8.074v5.123c0,0.662,0.536,1.197,1.199,1.197h7.676c0.662,0,1.198-0.534,1.198-1.197v-5.123
		H16.28C16.44,345.182,16.533,345.617,16.533,346.069L16.533,346.069z"/>
</g>
<path fill="#FF423F" d="M16.516,455.943h7.569c-0.206,1.158-0.682,2.253-1.412,3.205c-0.413,0.555-3.427,4.411-7.902,6.807
	l-1.555,0.825l-1.555-0.825c-4.3-2.317-7.204-5.902-7.838-6.743c-2.523-3.253-1.952-7.933,1.301-10.456
	c2.317-1.809,5.506-2.079,8.108-0.682c3.618-1.952,8.124-0.587,10.076,3.031c0.365,0.682,0.619,1.412,0.762,2.174h-3.396
	c-0.746-2.174-3.11-3.332-5.284-2.586c-0.904,0.301-1.666,0.92-2.174,1.73c-1.222-1.936-3.792-2.507-5.728-1.269
	c-1.936,1.238-2.507,3.808-1.285,5.744c0.079,0.111,0.143,0.222,0.238,0.333c0.317,0.412,2.951,3.76,6.791,5.823
	c1.904-1.016,3.634-2.332,5.125-3.871h-4.982v-0.095C13.374,457.356,14.77,455.943,16.516,455.943L16.516,455.943z"/>
<g>
	<path fill="#231F20" d="M13.29,495.86C7.609,495.86,3,491.251,3,485.571s4.609-10.289,10.29-10.289
		c5.679,0,10.289,4.608,10.289,10.289S18.969,495.86,13.29,495.86z M13.29,478.283c-4.02,0-7.289,3.269-7.289,7.288
		s3.269,7.288,7.289,7.288c4.018,0,7.287-3.269,7.287-7.288S17.308,478.283,13.29,478.283z M15.004,486.857
		c0,0.241-0.188,0.429-0.43,0.429h-4.287c-0.24,0-0.428-0.188-0.428-0.429V486c0-0.241,0.188-0.429,0.428-0.429h3.002v-4.716
		c0-0.241,0.188-0.429,0.427-0.429h0.857c0.241,0,0.43,0.188,0.43,0.429v6.002H15.004z"/>
</g>
<g>
	<path fill="#3FAA99" d="M23.208,505.566l-9.699,9.699l-1.822,1.822c-0.241,0.241-0.576,0.375-0.911,0.375s-0.67-0.134-0.911-0.375
		l-1.822-1.822l-4.85-4.85c-0.241-0.241-0.375-0.576-0.375-0.911s0.134-0.67,0.375-0.911l1.822-1.822
		c0.241-0.241,0.576-0.375,0.911-0.375s0.67,0.134,0.912,0.375l3.938,3.952l8.788-8.802c0.241-0.241,0.576-0.375,0.911-0.375
		s0.67,0.134,0.911,0.375l1.822,1.822c0.241,0.241,0.375,0.576,0.375,0.911S23.45,505.325,23.208,505.566z"/>
</g>
<g>
	<path fill="#231F20" d="M20.167,551.849v10.883c0,0.294-0.109,0.549-0.327,0.765c-0.219,0.216-0.478,0.322-0.776,0.322H6.927
		c-0.299,0-0.557-0.107-0.776-0.322c-0.218-0.216-0.327-0.471-0.327-0.765v-10.883c0-0.295,0.109-0.55,0.327-0.766
		c0.218-0.214,0.477-0.322,0.776-0.322h1.104v-0.816c0-0.374,0.135-0.694,0.405-0.961c0.27-0.267,0.595-0.401,0.974-0.401h0.552
		c0.379,0,0.704,0.134,0.974,0.401c0.27,0.267,0.405,0.586,0.405,0.961v0.816h3.31v-0.816c0-0.374,0.135-0.694,0.405-0.961
		c0.27-0.267,0.595-0.401,0.974-0.401h0.552c0.378,0,0.704,0.134,0.974,0.401c0.269,0.267,0.405,0.586,0.405,0.961v0.816h1.104
		c0.298,0,0.557,0.108,0.776,0.322C20.058,551.299,20.167,551.554,20.167,551.849z M6.927,556.474H9.41v-2.449H6.927V556.474z
		 M6.927,559.738H9.41v-2.72H6.927V559.738z M6.927,562.732H9.41v-2.449H6.927V562.732z M10.238,552.392v-2.448
		c0-0.074-0.028-0.138-0.082-0.192c-0.055-0.053-0.119-0.081-0.194-0.081H9.41c-0.075,0-0.14,0.027-0.194,0.081
		c-0.055,0.055-0.082,0.118-0.082,0.192v2.448c0,0.074,0.028,0.138,0.082,0.192c0.054,0.053,0.119,0.081,0.194,0.081h0.552
		c0.075,0,0.139-0.027,0.194-0.081C10.21,552.53,10.238,552.467,10.238,552.392z M9.962,556.474h2.759v-2.449H9.962V556.474z
		 M9.962,559.738h2.759v-2.72H9.962V559.738z M9.962,562.732h2.759v-2.449H9.962V562.732z M13.272,556.474h2.758v-2.449h-2.758
		V556.474z M13.272,559.738h2.758v-2.72h-2.758V559.738z M13.272,562.732h2.758v-2.449h-2.758V562.732z M16.857,552.392v-2.448
		c0-0.074-0.028-0.138-0.082-0.192c-0.055-0.053-0.119-0.081-0.194-0.081H16.03c-0.075,0-0.14,0.027-0.194,0.081
		c-0.055,0.055-0.083,0.118-0.083,0.192v2.448c0,0.074,0.028,0.138,0.083,0.192c0.054,0.053,0.118,0.081,0.194,0.081h0.552
		c0.074,0,0.138-0.027,0.194-0.081C16.83,552.53,16.857,552.467,16.857,552.392z M16.582,556.474h2.483v-2.449h-2.483V556.474z
		 M16.582,559.738h2.483v-2.72h-2.483V559.738z M16.582,562.732h2.483v-2.449h-2.483V562.732z"/>
</g>
<g id="Layer_2">
	<g>
		<g>
			<g>
				<path fill="#231F20" d="M18.977,369.368c0.213,0,0.386-0.173,0.386-0.386v-1.219c0-0.466-0.379-0.845-0.845-0.845h-8.175
					c-0.102,0-0.201,0.041-0.273,0.113l-3.201,3.201c-0.073,0.073-0.113,0.171-0.113,0.273v11.577c0,0.466,0.379,0.845,0.845,0.845
					h10.917c0.466,0,0.845-0.379,0.845-0.845v-5.9c0-0.213-0.173-0.386-0.386-0.386c-0.213,0-0.386,0.173-0.386,0.386v5.9
					c0,0.04-0.032,0.072-0.072,0.072H7.601c-0.04,0-0.072-0.032-0.072-0.072v-11.19h2.356c0.466,0,0.845-0.379,0.845-0.845v-2.356
					h7.788c0.04,0,0.072,0.032,0.072,0.072v1.219C18.59,369.194,18.763,369.368,18.977,369.368z M9.957,370.046
					c0,0.04-0.032,0.072-0.072,0.072h-1.81l1.882-1.882L9.957,370.046L9.957,370.046z"/>
			</g>
		</g>
		<g>
			<g>
				<path fill="#231F20" d="M21.951,370.056l-0.455-0.455c-0.51-0.51-1.339-0.51-1.849,0l-3.609,3.609h-6.26
					c-0.213,0-0.386,0.173-0.386,0.386s0.173,0.386,0.386,0.386h5.487l-2.326,2.326H9.778c-0.213,0-0.386,0.173-0.386,0.386
					s0.173,0.386,0.386,0.386h2.389l-0.006,0.006c-0.047,0.047-0.081,0.106-0.099,0.17l-0.597,2.149H9.778
					c-0.213,0-0.386,0.173-0.386,0.386s0.173,0.386,0.386,0.386h1.98c0,0,0.085-0.01,0.097-0.013
					c0.002-0.001,2.439-0.677,2.439-0.677c0.064-0.018,0.123-0.052,0.17-0.099l7.487-7.486
					C22.461,371.395,22.461,370.566,21.951,370.056z M12.314,379.239l0.315-1.136l0.82,0.82L12.314,379.239z M14.191,378.572
					l-1.211-1.211l6.18-6.18l1.211,1.211L14.191,378.572z M21.405,371.359l-0.487,0.487l-1.211-1.211l0.487-0.487
					c0.209-0.209,0.548-0.209,0.756,0l0.455,0.455C21.613,370.811,21.613,371.15,21.405,371.359z"/>
			</g>
		</g>
	</g>
</g>
<g>
	<g>
		<path fill="#231F20" d="M8.01,409.739c0.021,0.499,0.431,0.893,0.931,0.893h8.694c0.499,0,0.91-0.394,0.931-0.893l0.621-13.107
			H7.389L8.01,409.739z M15.254,399.887c0-0.209,0.169-0.378,0.378-0.378h0.605c0.209,0,0.378,0.169,0.378,0.378v7.488
			c0,0.209-0.169,0.378-0.378,0.378h-0.605c-0.209,0-0.378-0.169-0.378-0.378V399.887z M12.607,399.887
			c0-0.209,0.169-0.378,0.378-0.378h0.605c0.209,0,0.378,0.169,0.378,0.378v7.488c0,0.209-0.169,0.378-0.378,0.378h-0.605
			c-0.209,0-0.378-0.169-0.378-0.378V399.887L12.607,399.887z M9.959,399.887c0-0.209,0.169-0.378,0.378-0.378h0.605
			c0.209,0,0.378,0.169,0.378,0.378v7.488c0,0.209-0.169,0.378-0.378,0.378h-0.605c-0.209,0-0.378-0.169-0.378-0.378
			C9.959,407.375,9.959,399.887,9.959,399.887z"/>
		<path fill="#231F20" d="M19.6,393.078h-4.011v-0.758c0-0.108-0.087-0.195-0.195-0.195h-4.212c-0.108,0-0.195,0.087-0.195,0.195
			v0.758H6.975c-0.323,0-0.584,0.262-0.584,0.584v1.836h13.793v-1.836C20.184,393.34,19.922,393.078,19.6,393.078z"/>
	</g>
</g>
<g>
	
		<circle fill="none" stroke="#43AD9C" stroke-width="2" stroke-linecap="round" stroke-linejoin="round" stroke-miterlimit="10" cx="13.084" cy="428.417" r="9.083"/>
	
		<polyline fill="none" stroke="#43AD9C" stroke-width="2" stroke-linecap="round" stroke-linejoin="round" stroke-miterlimit="10" points="
		16.206,425.124 12.743,432.447 9.621,430.063 	"/>
</g>
<path fill="#202020" d="M18.628,589.169l-6.351,7.159c-0.107,0.12-0.246,0.181-0.384,0.181c-0.144,0-0.289-0.068-0.399-0.203
	c-0.209-0.258-0.203-0.669,0.018-0.918l5.934-6.689l-5.934-6.689c-0.221-0.249-0.227-0.66-0.018-0.921
	c0.212-0.261,0.562-0.27,0.783-0.021l6.351,7.159c0.108,0.123,0.169,0.295,0.169,0.473
	C18.797,588.874,18.736,589.046,18.628,589.169z M13.975,589.169l-6.352,7.159c-0.107,0.12-0.243,0.181-0.381,0.181
	c-0.144,0-0.292-0.068-0.399-0.203c-0.212-0.258-0.203-0.669,0.018-0.918l5.934-6.689l-5.934-6.689
	c-0.221-0.249-0.23-0.66-0.018-0.921c0.212-0.261,0.562-0.27,0.78-0.021l6.352,7.159c0.11,0.123,0.172,0.295,0.172,0.473
	C14.147,588.874,14.085,589.046,13.975,589.169z"/>
<path fill="#3FAA99" d="M18.628,619.169l-6.351,7.159c-0.107,0.12-0.246,0.181-0.384,0.181c-0.144,0-0.289-0.068-0.399-0.203
	c-0.209-0.258-0.203-0.669,0.018-0.918l5.934-6.689l-5.934-6.689c-0.221-0.249-0.227-0.66-0.018-0.921
	c0.212-0.261,0.562-0.27,0.783-0.021l6.351,7.159c0.108,0.123,0.169,0.295,0.169,0.473
	C18.797,618.874,18.736,619.046,18.628,619.169z M13.975,619.169l-6.352,7.159c-0.107,0.12-0.243,0.181-0.381,0.181
	c-0.144,0-0.292-0.068-0.399-0.203c-0.212-0.258-0.203-0.669,0.018-0.918l5.934-6.689l-5.934-6.689
	c-0.221-0.249-0.23-0.66-0.018-0.921c0.212-0.261,0.562-0.27,0.78-0.021l6.352,7.159c0.11,0.123,0.172,0.295,0.172,0.473
	C14.147,618.874,14.085,619.046,13.975,619.169z"/>
<g id="Page-1">
	<g id="icon-111-search">
		<path id="search" fill="#929292" d="M16.427,657.76c-1.39,0.99-3.09,1.573-4.927,1.573c-4.694,0-8.5-3.806-8.5-8.5
			c0-4.694,3.806-8.5,8.5-8.5s8.5,3.806,8.5,8.5c0,2.347-0.951,4.472-2.49,6.01l5.997,5.997c0.275,0.275,0.268,0.716-0.008,0.992
			c-0.278,0.278-0.72,0.28-0.992,0.008L16.427,657.76L16.427,657.76z M11.5,658.333c4.142,0,7.5-3.358,7.5-7.5
			c0-4.142-3.358-7.5-7.5-7.5s-7.5,3.358-7.5,7.5C4,654.975,7.358,658.333,11.5,658.333L11.5,658.333z"/>
	</g>
</g>
</svg>
